<svg xmlns="http://www.w3.org/2000/svg" xmlns:xlink="http://www.w3.org/1999/xlink" viewBox="0 0 400 73.95"><defs><style>.cls-1{fill:#683ae6;}.cls-2{fill:#050237;}.cls-3{fill:url(#未命名的渐变_26);}</style><radialGradient id="未命名的渐变_26" cx="79.68" cy="17.28" r="83.87" gradientUnits="userSpaceOnUse"><stop offset="0" stop-color="#9977f3"/><stop offset="0.32" stop-color="#9775f3"/><stop offset="0.8" stop-color="#784af3"/></radialGradient></defs><g id="图层_2" data-name="图层 2"><g id="图层_1-2" data-name="图层 1"><path class="cls-1" d="M67,17.57C61.62,24,54.52,31.73,46.55,40,36,50.92,26.92,58.64,19.65,63.75A34.13,34.13,0,0,0,67,17.57Z"/><path class="cls-1" d="M3.32,66.6A9.83,9.83,0,0,0,1,69.68a2.87,2.87,0,0,0-.25,1.75,2.07,2.07,0,0,0,.33.76,1.92,1.92,0,0,0,.58.54,3,3,0,0,0,1.64.12,11.14,11.14,0,0,0,1.83-.46,25.44,25.44,0,0,0,3.53-1.53,60,60,0,0,0,6.69-4c2.15-1.48,4.27-3,6.33-4.64a239.27,239.27,0,0,0,23.18-21.3c7.31-7.6,14.63-15.22,21.57-23.12q2.6-3,5-6.06A46,46,0,0,0,75.8,5.3a14,14,0,0,0,.76-1.69c0-.15.09-.29.13-.43s.06-.28.09-.42a2.71,2.71,0,0,0,0-.4,2.1,2.1,0,0,0,0-.36.86.86,0,0,0-.26-.53,1.51,1.51,0,0,0-.63-.33,5.27,5.27,0,0,0-1.79-.09,20.49,20.49,0,0,0-3.81.79c-1.27.36-2.52.79-3.77,1.23,1.17-.62,2.38-1.18,3.6-1.7A21.58,21.58,0,0,1,74,.15,6,6,0,0,1,76.14.07a2.62,2.62,0,0,1,1.15.49A2.13,2.13,0,0,1,78,1.7a3.36,3.36,0,0,1,.11.62,3.85,3.85,0,0,1,0,.59,3.43,3.43,0,0,1-.07.56c0,.18-.07.36-.11.54a14.6,14.6,0,0,1-.69,2,32.56,32.56,0,0,1-1.92,3.6c-.7,1.15-1.43,2.27-2.19,3.38-1.51,2.2-3.14,4.31-4.79,6.41-.82,1-1.66,2.08-2.5,3.11s-1.71,2-2.57,3.05c-1.72,2-3.48,4-5.25,6s-3.58,3.92-5.38,5.86S49,41.24,47.17,43.16C43.46,47,39.63,50.68,35.65,54.21c-2,1.77-4,3.5-6.11,5.17s-4.2,3.29-6.38,4.84A75.49,75.49,0,0,1,9.29,72.31a27.78,27.78,0,0,1-3.86,1.3,12.64,12.64,0,0,1-2.06.32,5,5,0,0,1-1.09,0,2.83,2.83,0,0,1-1.13-.39,1.91,1.91,0,0,1-.46-.43,3.76,3.76,0,0,1-.32-.46A2.75,2.75,0,0,1,0,71.54a3.43,3.43,0,0,1,.5-2.08,7.88,7.88,0,0,1,1.26-1.59A10.94,10.94,0,0,1,3.32,66.6Z"/><path class="cls-2" d="M84.69,15.46h7.87V37.29l24.82-21.83h11.19L112.67,29,130,54.25h-10.2L106.52,34.19l-14,11.86v8.2H84.69Z"/><path class="cls-2" d="M164.36,54.25h-8.64l1.11-11.42h-.44c-1.17,7.37-5.27,12.3-13.63,12.3-7.82-.11-11.53-4.48-11.53-16.56v-12h7.87V37.63c0,8.36,2.22,11.58,7.59,11.58,6,0,9.81-5.93,9.81-15V26.55h7.86Z"/><path class="cls-2" d="M177.44,45.22h-.67l1.22,9H169.9V15.46h7.87V35.52H178c1.33-6.54,7.59-9.86,14.41-9.86a14.06,14.06,0,0,1,14.4,14.52c0,9-6.42,15-14.29,15C185.47,55.13,178.77,51.87,177.44,45.22Zm21.66-4.93c0-5.32-4.15-8.59-9.86-8.59-5.26,0-9.92,3.27-9.92,8.59S184,49,189.24,49C195,49,199.1,45.72,199.1,40.29Z"/><path class="cls-2" d="M209.19,40.4c0-8.87,6.65-14.74,16.67-14.74s16.51,5,16.68,12.58v4.54H216.72c.89,4.54,4.6,6.37,11.91,6.37,6.76,0,9.53-1.72,12.69-3v6.32c-5.37,2-8.48,2.71-15.46,2.71C215.84,55.13,209.19,49.26,209.19,40.4Zm25.87-1.89c-.22-5-3.21-6.81-9.2-6.81-5.81,0-8.81,2-9.3,7.26Z"/><path class="cls-2" d="M245.75,34.86c0-12.19,9.37-20.28,24.49-20.28s24.55,8.09,24.55,20.28-9.37,20.27-24.55,20.27S245.75,47,245.75,34.86Zm41.17,0c0-8.59-6.54-13.69-16.68-13.69s-16.62,5.1-16.62,13.69,6.54,13.63,16.62,13.63S286.92,43.44,286.92,34.86Z"/><path class="cls-2" d="M299.16,26.55h8.65L306.7,38h.55c1.44-9.09,5.71-12.3,16.07-12.3v6.59C311.68,32.25,307,36,307,44.94v9.31h-7.87Z"/><path class="cls-2" d="M334.62,45.22H334l1.22,9h-8.09V15.46H335V35.52h.23c1.33-6.54,7.59-9.86,14.4-9.86A14.07,14.07,0,0,1,364,40.18c0,9-6.43,15-14.3,15C342.66,55.13,336,51.87,334.62,45.22Zm21.67-4.93c0-5.32-4.16-8.59-9.87-8.59-5.26,0-9.91,3.27-9.91,8.59S341.16,49,346.42,49C352.13,49,356.29,45.72,356.29,40.29Z"/><path class="cls-2" d="M366.81,17.29c0-3,1.89-4.43,4.82-4.43s4.93,1.44,4.93,4.43-1.88,4.49-4.93,4.49S366.81,20.34,366.81,17.29Zm1,9.26h7.87v27.7h-7.87Z"/><path class="cls-2" d="M384.15,44.27v-12h-4v-5.7h5.09V19.9L392,18.79v7.76h8v5.7h-8V42.61c0,5.65,0,7,5,7,.83,0,1.78-.06,2.94-.11v4.15a22.35,22.35,0,0,1-7.53,1.11C385.26,54.8,384.15,52.2,384.15,44.27Z"/><path class="cls-3" d="M16,61.21A269.19,269.19,0,0,0,44,35.64c7.56-7.84,14.5-15.29,20.38-22A34.12,34.12,0,1,0,16,61.21Z"/></g></g></svg>